<svg
  width="16"
  height="16"
  viewBox="0 0 16 16"
  fill="none"
  xmlns="http://www.w3.org/2000/svg"
>
  <path
    fill-rule="evenodd"
    clip-rule="evenodd"
    d="M8 0C3.58 0 0 3.58 0 8c0 3.54 2.29 6.53 5.47 7.59.4.07.55-.17.55-.39 0-.18-.01-.66-.01-1.3-2.24.49-2.71-1.08-2.71-1.08-.36-.92-.88-1.17-.88-1.17-.72-.49.05-.48.05-.48.79.06 1.21.81 1.21.81.7 1.21 1.84.86 2.29.66.07-.51.27-.86.49-1.06-1.73-.2-3.55-.86-3.55-3.83 0-.85.3-1.55.79-2.1-.08-.2-.34-1.02.07-2.12 0 0 .66-.21 2.15.79A7.445 7.445 0 018 2.64c.67.003 1.34.09 1.96.26 1.49-1 2.15-.79 2.15-.79.41 1.1.15 1.92.07 2.12.49.55.79 1.25.79 2.1 0 2.98-1.82 3.63-3.55 3.83.29.25.55.74.55 1.48 0 1.07-.01 1.93-.01 2.2 0 .22.15.46.55.39C13.71 14.53 16 11.54 16 8c0-4.42-3.58-8-8-8z"
    fill="white"
  />
</svg>
